<?xml version="1.0" encoding="UTF-8"?>
<svg id="Capa_1" data-name="Capa 1" xmlns="http://www.w3.org/2000/svg" viewBox="0 0 1232.85 366.57">
  <defs>
    <style>
      .cls-1 {
        fill: #fff;
        stroke-width: 0px;
      }
    </style>
  </defs>
  <g>
    <polygon class="cls-1" points="67.08 196.64 0 294.78 0 131.46 67.08 33.12 67.08 196.64"/>
    <polygon class="cls-1" points="250.57 0 0 366.57 81.25 366.57 248.61 121.73 248.61 366.57 315.69 366.57 315.69 0 250.57 0"/>
  </g>
  <g>
    <polygon class="cls-1" points="565.73 223.14 465.76 101.99 446.25 101.99 446.25 264.58 470.05 264.58 470.05 143.43 570.01 264.58 589.53 264.58 589.53 101.99 565.73 101.99 565.73 223.14"/>
    <rect class="cls-1" x="687.11" y="101.99" width="23.8" height="162.59"/>
    <polygon class="cls-1" points="966.05 101.99 897.47 216.2 828.01 101.99 808.49 101.99 808.49 264.58 831.34 264.58 831.34 146.75 891.56 244.84 902.5 244.84 962.74 146.02 962.96 264.58 985.81 264.58 985.57 101.99 966.05 101.99"/>
    <polygon class="cls-1" points="1232.85 264.58 1157.17 101.99 1133.61 101.99 1058.16 264.58 1082.67 264.58 1145.27 125.57 1207.86 264.58 1232.85 264.58"/>
  </g>
</svg>